<?xml version="1.0" encoding="utf-8"?>
<!-- Generator: Adobe Illustrator 24.1.2, SVG Export Plug-In . SVG Version: 6.00 Build 0)  -->
<svg version="1.1" id="Layer_1" xmlns="http://www.w3.org/2000/svg" xmlns:xlink="http://www.w3.org/1999/xlink" x="0px" y="0px"
	 viewBox="0 0 23 42" style="enable-background:new 0 0 23 42;" xml:space="preserve">
<style type="text/css">
	.st0{enable-background:new    ;}
	.st1{fill:#1CCEF5;}
</style>
<g class="st0">
	<path class="st1" d="M1.3,12.7l9.5-9.6c0.4-0.4,1-0.4,1.4,0l9.5,9.6c0.4,0.4,0.4,1,0,1.4l-0.6,0.6c-0.4,0.4-1,0.4-1.4,0l-6.8-6.9
		v30.8c0,0.5-0.4,1-1,1h-0.8c-0.5,0-1-0.4-1-1V7.8l-6.8,6.9c-0.4,0.4-1,0.4-1.4,0l-0.6-0.6C0.9,13.7,0.9,13.1,1.3,12.7z"/>
</g>
</svg>
